Coordinates
version=1
nRows=9
nColumns=36
inDegrees=yes

Units are S.I. units (second, meters, Newtons, ...)
If the header above contains a line with 'inDegrees', this indicates whether rotational values are in degrees (yes) or radians (no).

endheader
time	pelvis_tilt	pelvis_list	pelvis_rotation	pelvis_tx	pelvis_ty	pelvis_tz	hip_flexion_r	hip_adduction_r	hip_rotation_r	knee_angle_r	knee_angle_r_beta	ankle_angle_r	subtalar_angle_r	mtp_angle_r	hip_flexion_l	hip_adduction_l	hip_rotation_l	knee_angle_l	knee_angle_l_beta	ankle_angle_l	subtalar_angle_l	mtp_angle_l	lumbar_extension	lumbar_bending	lumbar_rotation	arm_flex_r	arm_add_r	arm_rot_r	elbow_flex_r	pro_sup_r	arm_flex_l	arm_add_l	arm_rot_l	elbow_flex_l	pro_sup_l
      1.52000000	     -7.48585082	      2.77735518	      0.98931511	     -0.34006669	      0.87964917	     -0.55238448	     51.75805437	      1.45454657	      5.94483401	     72.84140217	      1.27132230	     26.24127337	    -15.60990226	     -7.49721664	     52.29880003	     -3.14272393	     -1.23272235	     67.67403550	      1.18113474	     21.88958513	     -7.73184894	     -7.49721664	    -18.07043861	      2.79605714	     -1.70320260	      8.65012242	    -21.57707168	    -31.53674646	    113.89945352	    111.44417440	     -3.31130891	    -16.07972253	    -27.40867517	    100.86113786	     98.82198098
      1.53000000	     -8.44666209	      2.60762345	      0.99359623	     -0.34118835	      0.87837680	     -0.55274627	     52.87230548	      1.35615377	      5.59355057	     72.72129466	      1.26922603	     26.08408303	    -15.28732523	     -7.49723745	     53.35126595	     -3.58731448	     -1.66918322	     67.55405799	      1.17904073	     21.95610189	     -7.34266775	     -7.49723745	    -18.25780978	      3.00864637	     -1.80811186	      8.89585164	    -22.10260518	    -28.43605467	    111.97719958	    111.51880559	     -2.39043361	    -16.12611920	    -25.27191159	     96.98563681	     98.32164005
      1.54000000	     -9.47516407	      2.37561386	      0.98406410	     -0.34231658	      0.87706635	     -0.55316250	     54.01872498	      1.32994614	      5.22605571	     72.53187746	      1.26592007	     25.97247585	    -14.97500459	     -7.49725776	     54.52616749	     -4.04157551	     -1.98194580	     67.51122853	      1.17829322	     22.07998615	     -6.81304791	     -7.49725776	    -18.37593634	      3.26943570	     -1.87967684	      9.20017563	    -22.45650448	    -25.75351757	    110.36554189	    111.63055893	     -1.55213839	    -16.20488664	    -23.48317883	     93.96161979	     97.95712925
      1.55000000	    -10.38387293	      2.07647663	      0.92258039	     -0.34341682	      0.87604970	     -0.55332027	     54.97278489	      1.44240965	      4.87088015	     72.26312378	      1.26122944	     25.88467208	    -14.72144699	     -7.49728620	     55.59565341	     -4.58027668	     -2.18277945	     67.53274937	      1.17866883	     22.33919652	     -6.04699884	     -7.49728620	    -18.64903294	      3.53339204	     -1.97833891	      9.70817526	    -22.56804266	    -23.36733448	    108.85902588	    111.79510400	     -0.86542359	    -16.38540644	    -21.75334717	     91.72264265	     97.75910256
      1.56000000	    -11.13741265	      1.80573240	      0.77221176	     -0.34442726	      0.87537177	     -0.55332959	     55.74335553	      1.62309776	      4.62206815	     71.99124348	      1.25648423	     25.78656811	    -14.49043871	     -7.49731547	     56.47326369	     -5.14932861	     -2.39612997	     67.55155339	      1.17899702	     22.57189397	     -5.25195946	     -7.49731547	    -19.10558257	      3.70477135	     -2.09715589	     10.40423320	    -22.45985825	    -21.23493804	    107.48050610	    111.97955497	     -0.34833366	    -16.60670769	    -20.07779757	     90.07882233	     97.70911628
      1.57000000	    -11.94321612	      1.64559341	      0.67994082	     -0.34533739	      0.87439770	     -0.55339553	     56.60040391	      1.69154693	      4.45890782	     71.83565022	      1.25376862	     25.75104855	    -14.23192147	     -7.49734847	     57.40067553	     -5.51115651	     -2.53396028	     67.55310182	      1.17902405	     22.80656953	     -4.53721670	     -7.49734847	    -19.45746836	      3.76390361	     -2.38046030	     11.17601766	    -22.11086401	    -19.42785723	    106.16803568	    112.18050906	     -0.01299941	    -16.83053752	    -18.62426600	     88.81558701	     97.78826904
      1.58000000	    -12.86049890	      1.62576373	      0.58858987	     -0.34612844	      0.87283972	     -0.55348444	     57.66137490	      1.63613979	      4.35488283	     71.83539079	      1.25376409	     25.89390594	    -13.82726934	     -7.49743096	     58.44523787	     -5.67061277	     -2.60962352	     67.59815840	      1.17981043	     23.19753364	     -3.75113285	     -7.49743096	    -19.61170378	      3.63607927	     -2.96056364	     12.16068152	    -21.52781384	    -17.52972318	    104.68742238	    112.60383067	     -0.02589521	    -16.94407921	    -17.80133581	     87.90345182	     98.28643250
      1.59000000	    -13.63700135	      1.61813870	      0.33009143	     -0.34681844	      0.87119843	     -0.55313825	     58.60308387	      1.79201931	      4.42901643	     71.84034931	      1.25385063	     25.85243435	    -13.63028727	     -7.49745423	     59.34480868	     -5.99416399	     -2.80722877	     67.72164090	      1.18196561	     23.16325304	     -3.64384200	     -7.49745423	    -19.91952748	      3.42858807	     -3.05785775	     12.93444525	    -20.60599918	    -16.70648864	    103.54190600	    112.64914680	      0.19665775	    -16.98611666	    -16.76774470	     86.95935369	     98.41398481
      1.60000000	    -14.47644000	      1.62962043	      0.15146626	     -0.34746328	      0.86896684	     -0.55280769	     59.67886714	      1.89952391	      4.45159392	     71.98960833	      1.25645569	     25.88562761	    -13.51418992	     -7.49747495	     60.37322600	     -6.20921489	     -2.91764265	     67.93871539	      1.18575427	     23.26238019	     -3.52497104	     -7.49747495	    -20.07237253	      3.17892996	     -3.21778415	     13.56362102	    -19.86633303	    -15.83335596	    102.38585973	    112.64911161	      0.48637779	    -16.87247430	    -15.89636536	     85.99241199	     98.49925275
